# xmcd
#
# Track frame offsets: 
#        150
#        29832
#        48970
#        71900
#        92392
#        111740
#        126672
#        148677
#        161870
#        176100
#        200072
#        213967
#
# Disc length: 3128 seconds
#
# Revision: 1
# Processed by: cddbd v1.5.2PL0 Copyright (c) Steve Scherf et al.
# Submitted via: ExactAudioCopy v1.0b1
#
DISCID=c70c360c
DTITLE=Blues House - Joyful
DYEAR=1900
DGENRE=Blues
TTITLE0=The Old Rugged Cross
TTITLE1=Old Time Religion
TTITLE2=Glory, Glory, Hallelujah
TTITLE3=Come By Here
TTITLE4=I'll Gladly Give My Life
TTITLE5=I Just Want To Thank Him
TTITLE6=Amazing Grace
TTITLE7=Lord Don't Leave Me
TTITLE8=At The Cross
TTITLE9=Walk Around Heaven
TTITLE10=Joshua Fit The Battle Of Jericho
TTITLE11=Waiting So Long
EXTD=
EXTT0=
EXTT1=
EXTT2=
EXTT3=
EXTT4=
EXTT5=
EXTT6=
EXTT7=
EXTT8=
EXTT9=
EXTT10=
EXTT11=
PLAYORDER=
